# Blender v2.79 (sub 0) OBJ File: ''
# www.blender.org
mtllib Blue Gem.mtl
o Circle
v 1.950000 0.975000 0.000000
v 0.000000 -1.925000 -0.000000
v 1.378858 0.975000 -1.378858
v 0.000000 0.975000 1.950000
v 1.378858 0.975000 1.378858
v -1.950000 0.975000 0.000000
v -1.378858 0.975000 1.378858
v 0.000000 0.975000 -1.950000
v -1.378858 0.975000 -1.378858
v 0.689429 1.937500 -0.689429
v 0.975000 1.937500 0.000000
v 0.689429 1.937500 0.689429
v 0.000000 1.937500 0.975000
v -0.689429 1.937500 0.689429
v -0.975000 1.937500 0.000000
v -0.689429 1.937500 -0.689429
v 0.000000 1.937500 -0.975000
vt 0.625000 0.750000
vt 0.625000 0.750000
vt 0.625000 0.750000
vt 0.625000 0.750000
vt 0.625000 0.750000
vt 0.625000 0.750000
vt 0.625000 0.750000
vt 0.625000 0.750000
vt 0.625000 0.750000
vt 0.625000 0.750000
vt 0.625000 0.750000
vt 0.625000 0.750000
vt 0.625000 0.750000
vt 0.625000 0.750000
vt 0.625000 0.750000
vt 0.625000 0.750000
vt 0.625000 0.750000
vn 0.7848 -0.5277 -0.3251
vn 0.3251 -0.5277 0.7848
vn -0.7848 -0.5277 0.3251
vn -0.3251 -0.5277 -0.7848
vn 0.3251 -0.5277 -0.7848
vn 0.7848 -0.5277 0.3251
vn -0.3251 -0.5277 0.7848
vn -0.7848 -0.5277 -0.3251
vn 0.6746 0.6833 -0.2794
vn 0.2794 0.6833 0.6746
vn -0.6746 0.6833 0.2794
vn -0.2794 0.6833 -0.6745
vn 0.2794 0.6833 -0.6745
vn 0.6746 0.6833 0.2794
vn -0.2794 0.6833 0.6746
vn -0.6746 0.6833 -0.2794
vn 0.0000 1.0000 0.0000
usemtl GEM2
s 1
f 1/1/1 2/2/1 3/3/1
f 4/4/2 2/2/2 5/5/2
f 6/6/3 2/2/3 7/7/3
f 8/8/4 2/2/4 9/9/4
f 3/3/5 2/2/5 8/8/5
f 5/5/6 2/2/6 1/1/6
f 7/7/7 2/2/7 4/4/7
f 9/9/8 2/2/8 6/6/8
f 3/3/9 10/10/9 11/11/9 1/1/9
f 5/5/10 12/12/10 13/13/10 4/4/10
f 7/7/11 14/14/11 15/15/11 6/6/11
f 9/9/12 16/16/12 17/17/12 8/8/12
f 8/8/13 17/17/13 10/10/13 3/3/13
f 1/1/14 11/11/14 12/12/14 5/5/14
f 4/4/15 13/13/15 14/14/15 7/7/15
f 6/6/16 15/15/16 16/16/16 9/9/16
f 16/16/17 15/15/17 14/14/17 13/13/17 12/12/17 11/11/17 10/10/17 17/17/17
